<svg width="261" height="256" viewBox="0 0 261 256" fill="none" xmlns="http://www.w3.org/2000/svg">
<path d="M139.51 200.911C131.574 221.331 125.076 237.9 118.625 254.515C116.444 255.025 114.263 255.489 112.081 256C107.487 234.651 102.938 213.349 97.8796 189.587C75.1385 200.029 55.1356 209.265 29.2386 221.192C41.7694 199.101 51.7476 181.465 64 159.884C41.2125 163.272 21.9521 166.103 2.73822 168.934C1.81001 166.567 0.928209 164.154 0 161.74C20.3742 150.555 40.7484 139.371 62.5149 127.397C49.2415 119.321 33.5547 109.761 17.868 100.2C18.4249 98.483 18.9819 96.7194 19.5388 95.0022C34.0653 95.7447 48.6381 96.5337 66.5526 97.4155C60.1015 74.7208 54.3466 54.3466 47.6171 30.5845C71.4721 41.3517 92.1711 50.7266 114.727 60.9369C114.866 36.6642 114.959 18.5642 115.051 0.464104C117.465 0.324873 119.832 0.139231 122.245 0C130.088 25.2009 137.885 50.4017 146.1 76.8093C160.302 62.2364 173.946 48.2669 191.257 30.5381C189.912 56.6672 188.798 77.9695 187.452 103.82C208.383 92.3568 228.2 81.4967 248.064 70.6367C249.178 71.5185 250.292 72.4467 251.405 73.3285C234.698 92.6817 217.99 111.988 199.333 133.616C220.496 140.716 240.22 147.4 260.687 154.268C243.237 157.795 226.854 161.091 208.615 164.803C218.083 176.592 226.39 186.988 234.744 197.384C233.63 199.333 232.47 201.282 231.31 203.231C211.353 194.97 191.397 186.663 163.365 175.014C170.466 201.978 176.174 223.884 181.975 245.836C180.212 246.996 178.448 248.157 176.685 249.363C170.234 242.355 163.318 235.672 157.517 228.154C151.669 220.542 146.889 212.096 139.603 200.864" fill="#FDEFE3"/>
</svg>
