<svg width="264" height="82" viewBox="0 0 264 82" fill="none" xmlns="http://www.w3.org/2000/svg">
<path d="M262.321 2.89885C256.747 1.40637 249.692 0 240.867 0C194.794 0 183.123 25.7165 181.236 43.167C179.117 62.77 192.82 82 226.641 82C240.867 82 250.186 79.5604 253.496 78.4984C254.308 78.2401 254.947 77.5513 255.092 76.7189L256.979 66.8169C257.27 65.3245 255.847 64.0903 254.367 64.5208C250.68 65.6689 244.118 67.2475 235.844 67.2475C219.674 67.2475 208.003 57.6612 209.484 41.1579C210.906 25.1712 221.822 13.0018 236.832 13.0018C245.86 13.0018 249.838 17.6514 249.547 23.9083C249.547 23.9083 249.547 24.0231 249.547 24.2527C249.489 25.4008 250.389 26.3479 251.55 26.3479H257.676C258.634 26.3479 259.447 25.6878 259.65 24.7693L263.947 5.62548C264.208 4.42002 263.482 3.18586 262.263 2.87014M71.6715 2.89885L70.5393 7.8929C70.278 9.01225 70.9457 10.1316 72.0489 10.4473C73.994 11.1936 74.4295 13.0305 72.7457 14.4368L44.44 37.685L49.2883 15.7858C50.1302 12.4277 52.8301 11.0501 54.5139 10.5047C54.601 10.476 54.6881 10.4473 54.8042 10.4186C55.5591 10.189 56.1106 9.58628 56.2848 8.81134L57.4461 3.61638C57.7364 2.38222 56.7784 1.20546 55.501 1.20546H19.0955C18.0794 1.20546 17.1795 1.923 16.9472 2.89885L15.7569 8.15121C15.5247 9.21316 16.1343 10.3038 17.1795 10.6482C17.3827 10.7056 17.5278 10.763 17.5278 10.763C19.8213 11.6528 22.4632 13.6332 21.36 18.8855L12.6796 58.2639C10.4151 68.9983 6.72813 71.2083 3.21532 71.6101C3.18629 71.6101 3.12823 71.6101 3.0992 71.6101C2.17019 71.7249 1.38634 72.4137 1.18312 73.3035L0.0508924 78.3549C-0.239422 79.6465 0.747648 80.8806 2.11213 80.8806H40.4627C41.3917 80.8806 42.2046 80.2205 42.4078 79.3308L43.7432 73.4183C43.9465 72.4711 43.4239 71.4953 42.4949 71.1222C42.4078 71.0935 42.3207 71.0648 42.2336 71.0361C40.2885 70.2611 37.6466 68.5964 38.3144 65.468L42.7562 45.3483C58.0267 72.9303 63.0782 80.8806 81.3971 80.8806H97.945C98.874 80.8806 99.6869 80.2492 99.8901 79.3308L101.051 74.2219C101.342 72.9017 100.355 71.6388 99.0192 71.6388C94.8677 71.5814 92.8355 70.6342 88.713 65.3819L67.462 36.9387L95.0709 14.2359C98.7869 11.3658 103.287 10.5621 105.813 10.2464C105.813 10.2464 105.9 10.2464 106.074 10.2464C106.945 10.1603 107.671 9.52888 107.874 8.69654L109.006 3.64508C109.296 2.38222 108.309 1.20546 107.032 1.20546H73.8198C72.8037 1.20546 71.9038 1.923 71.6715 2.89885ZM173.833 24.7693H180.278C181.236 24.7693 182.049 24.1092 182.252 23.2195L186.636 3.64508C186.926 2.41092 185.968 1.20546 184.662 1.20546H116.728C115.712 1.20546 114.812 1.923 114.58 2.89885L113.39 8.15121C113.157 9.18446 113.738 10.2177 114.725 10.5621C114.812 10.5621 114.87 10.6195 114.957 10.6482C117.193 11.4806 120.299 13.6332 118.964 18.8855L105.667 78.4984C105.406 79.7326 106.335 80.9094 107.612 80.9094H138.154C139.112 80.9094 139.895 80.2492 140.099 79.3595L141.434 73.4183C141.637 72.5285 141.173 71.6388 140.36 71.2657C140.273 71.2083 140.157 71.1796 140.07 71.1222C138.125 70.2037 135.25 68.0224 136.208 63.8607C136.325 63.3154 139.199 50.371 139.199 50.371H165.182C166.14 50.371 166.953 49.7109 167.156 48.8211L169.595 37.9433C169.885 36.7091 168.927 35.5037 167.621 35.5037H142.537L147.211 14.3794H164.746C170.408 14.3794 172.149 17.2783 171.801 22.2723C171.801 22.2723 171.801 22.3297 171.801 22.5306C171.656 23.7074 172.614 24.7406 173.804 24.7406" fill="#FFEFE2"/>
</svg>
