<svg width="767" height="81" viewBox="0 0 767 81" fill="none" xmlns="http://www.w3.org/2000/svg">
<path d="M413.449 26.1623L425.899 1.15279H450.738L428.459 39.187L439.629 79.5347H413.974L409.496 54.4096L396.64 79.5347H370.869L394.08 40.458L383.435 1.15279H408.1L413.452 26.1623H413.449ZM481.969 58.8107C500.702 58.8107 512.859 50.7648 515.303 34.2082L516.466 26.5089C518.968 10.0101 509.31 1.15279 490.579 1.15279H460.853L449.1 79.5347H471.672L474.815 58.8107H481.972H481.969ZM487.788 18.3449C493.546 18.3449 494.593 22.1683 493.778 27.2022L493.195 31.3696C492.382 36.9261 490.635 41.5583 484.294 41.5583H477.427L480.861 18.3449H487.782H487.788ZM558.334 1.15542H528.608L516.857 79.5373H539.427L542.57 58.8134H549.724C549.887 58.8134 550.046 58.8081 550.207 58.8055L553.904 79.5373H579.558L572.193 52.9286C578.052 48.8505 581.815 42.6349 583.06 34.2109L584.224 26.5116C586.725 10.0127 577.07 1.15542 558.337 1.15542H558.334ZM555.545 18.3475C561.303 18.3475 562.35 22.1709 561.535 27.2048L560.955 31.3722C560.142 36.9287 558.395 41.5609 552.054 41.5609H545.188L548.621 18.3475H555.545ZM586.62 79.5373H638.22L641.011 61.0139H612.04L613.903 48.7429H640.605L643.107 31.7819H616.404L618.207 19.6815H646.073L648.865 1.15804H598.371L586.62 79.54V79.5373ZM670.675 80.6954C694.757 80.6954 702.842 68.5399 702.842 51.5762C702.842 41.448 698.013 36.7554 688.59 33.4598L681.433 30.9704C677.419 29.5813 675.559 28.1344 675.559 25.4691C675.559 20.8947 679.805 18.639 686.262 18.639C691.846 18.639 698.535 20.1436 702.433 21.1835L707.668 2.89117C704.877 2.08238 696.965 0 685.856 0C665.262 0 653.512 13.2558 653.512 31.1437C653.512 38.7275 656.594 43.0104 662.587 45.7335C674.279 51.0589 680.33 50.4812 680.33 55.5178C680.33 60.5544 675.91 62.0013 669.276 62.0013C662.006 62.0013 654.966 60.15 651.01 58.9315L645.6 76.9928C650.021 78.5579 659.504 80.698 670.675 80.698M730.003 80.698C754.088 80.698 762.174 68.5425 762.174 51.5789C762.174 41.4506 757.344 36.758 747.921 33.4625L740.765 30.9731C736.751 29.5839 734.891 28.137 734.891 25.4717C734.891 20.8973 739.137 18.6416 745.594 18.6416C751.178 18.6416 757.867 20.1463 761.765 21.1861L767 2.89379C764.208 2.085 756.297 0.00262595 745.185 0.00262595C724.591 0.00262595 712.841 13.2584 712.841 31.1464C712.841 38.7301 715.925 43.013 721.916 45.7361C733.608 51.0616 739.659 50.4839 739.659 55.5204C739.659 60.557 735.239 62.0039 728.605 62.0039C721.332 62.0039 714.295 60.1526 710.339 58.9342L704.929 76.9954C709.349 78.5605 718.833 80.7006 730.003 80.7006M253.654 4.0072C248.279 2.54192 241.455 1.18168 232.924 1.18168C188.38 1.18955 177.083 26.2175 175.255 43.2074C173.202 62.2849 186.467 81.0026 219.167 81C232.932 81 241.922 78.613 245.123 77.5994C245.925 77.3447 246.522 76.6777 246.677 75.8558L248.514 66.2264C248.791 64.7769 247.414 63.5611 246.002 64.0049C242.447 65.1235 236.103 66.6623 228.089 66.6649C212.46 66.6649 201.176 57.3271 202.603 41.2563C203.986 25.6923 214.539 13.8466 229.047 13.844C237.776 13.844 241.632 18.3843 241.347 24.4633C241.347 24.4633 241.347 24.5657 241.331 24.8073C241.27 25.9181 242.162 26.8529 243.281 26.8529H249.203C250.118 26.8529 250.91 26.2201 251.108 25.3325L255.269 6.69354C255.536 5.51187 254.823 4.32756 253.652 4.0072M69.3476 4.04921L68.2657 8.91247C68.0256 9.99699 68.6615 11.0841 69.7303 11.4071C69.7382 11.4071 69.7408 11.4097 69.7408 11.4097C71.625 12.1319 72.0419 13.9307 70.4005 15.2778L43.0411 37.9056C43.0411 37.9056 43.0279 37.9056 43.0305 37.8977L47.7277 16.575C48.5299 13.3031 51.1423 11.9559 52.7916 11.4229C52.8813 11.394 52.971 11.3677 53.0607 11.3415C53.7864 11.1183 54.3379 10.5248 54.5015 9.78691L55.6257 4.73721C55.8922 3.53978 54.9765 2.40274 53.7416 2.40274H18.4709C17.4761 2.40274 16.6132 3.09074 16.3968 4.05972L15.2542 9.17769C15.022 10.2202 15.6131 11.2679 16.629 11.6146C16.8296 11.6828 16.9615 11.7275 16.98 11.7327C19.194 12.5967 21.7563 14.5372 20.6743 19.6421L12.2644 57.9547C10.0636 68.4165 6.49852 70.554 3.0997 70.9452C3.0654 70.9505 3.02845 70.9531 2.99151 70.9584C2.08111 71.0582 1.33696 71.7252 1.13905 72.6153L0.0492095 77.5206C-0.233146 78.7863 0.735306 79.989 2.03889 79.989H39.1224C40.0302 79.989 40.8166 79.3614 41.0118 78.4791L42.2917 72.7361C42.5001 71.8013 41.9935 70.8533 41.0963 70.5041C41.0197 70.4752 40.9379 70.4411 40.8561 70.4096C38.9799 69.6533 36.4176 68.0383 37.0721 64.9948L41.3813 45.4053H41.3945C56.1561 72.2608 61.0485 79.9943 78.7709 79.9916H94.7754C95.6779 79.9916 96.4617 79.3667 96.6596 78.4896L97.7811 73.5134C98.0661 72.2372 97.1214 71.0109 95.8072 70.9846C91.8041 70.9242 89.8382 69.9999 85.8562 64.9029L65.3076 37.2281C65.3076 37.2281 65.3076 37.2202 65.3076 37.2176L92.0099 15.1202C95.5908 12.3315 99.9634 11.5489 102.383 11.2259C102.383 11.2259 102.478 11.2154 102.626 11.1997C103.478 11.1078 104.172 10.5169 104.357 9.68187L105.45 4.76872C105.719 3.55291 104.79 2.40012 103.539 2.40012H71.4165C70.4243 2.40012 69.5667 3.08549 69.3529 4.04921M168.156 25.3299H174.402C175.315 25.3299 176.104 24.6997 176.302 23.8147L180.551 4.76084C180.82 3.55028 179.894 2.40012 178.648 2.40012H112.954C111.957 2.40012 111.091 3.09074 110.878 4.05972L109.74 9.16718C109.519 10.165 110.075 11.1708 111.044 11.5122C111.115 11.5384 111.189 11.5621 111.263 11.5909C113.424 12.4102 116.435 14.4952 115.123 19.6132L102.251 77.6388C101.985 78.8441 102.906 79.9864 104.146 79.9864H133.69C134.601 79.9864 135.39 79.3562 135.585 78.4738L136.875 72.681C137.065 71.8276 136.625 70.9584 135.823 70.6012C135.728 70.5592 135.632 70.5146 135.535 70.4699C133.661 69.564 130.872 67.4527 131.806 63.3904C131.906 62.8468 134.698 50.2554 134.698 50.2554H159.823C160.736 50.2554 161.527 49.6225 161.725 48.7376L164.09 38.1393C164.359 36.9261 163.433 35.7759 162.184 35.7759H137.92L142.449 15.2252L159.398 15.2069C164.876 15.2069 166.546 18.0534 166.227 22.9061C166.227 22.9061 166.225 22.9692 166.203 23.1661C166.074 24.3215 166.984 25.3299 168.153 25.3299M372.212 19.6789L375.004 1.15542H324.51L324.504 1.18693C313.197 1.10815 304.969 1.20268 304.969 1.20268C301.863 1.20268 299.346 3.70784 299.346 6.79858C299.346 9.88932 301.863 12.3945 304.969 12.3945C304.969 12.3945 321.636 12.4706 323.744 12.4706C325.853 12.4706 328.439 15.7321 328.072 18.7046C327.716 21.5643 325.037 23.5863 322.14 23.5863H261.025C257.919 23.5863 255.401 24.2664 255.401 27.3571C255.401 30.4479 257.919 34.7781 261.025 34.7781H307.7C310.756 34.8358 313.215 37.3095 313.215 40.3635C313.215 43.4174 310.698 45.9593 307.592 45.9593H291.762C288.656 45.9593 286.138 48.4645 286.138 51.5552C286.138 54.646 288.656 57.1511 291.762 57.1511H318.52C321.625 57.1511 324.143 59.6563 324.143 62.747C324.143 65.8378 321.625 68.3429 318.52 68.3429H308.748C305.642 68.3429 303.125 70.8481 303.125 73.9388C303.125 77.0296 305.642 79.5347 308.748 79.5347C308.748 79.5347 310.234 79.5268 312.767 79.5085V79.5347H364.364L367.156 61.0113H338.187L340.05 48.7402H366.752L369.254 31.7792H342.551L344.354 19.6789H372.22H372.212ZM280.161 12.3945H287.075C290.181 12.3945 292.699 9.88932 292.699 6.79858C292.699 3.70784 290.181 1.20268 287.075 1.20268H280.161C277.056 1.20268 274.538 3.70784 274.538 6.79858C274.538 9.88932 277.056 12.3945 280.161 12.3945ZM269.691 45.8596C266.585 45.8596 264.067 48.3647 264.067 51.4555C264.067 54.5462 266.585 57.0514 269.691 57.0514C272.796 57.0514 275.314 54.5462 275.314 51.4555C275.314 48.3647 272.796 45.8596 269.691 45.8596Z" fill="white"/>
</svg>
