<svg width="1012" height="315" viewBox="0 0 1012 315" fill="none" xmlns="http://www.w3.org/2000/svg">
<path d="M318.46 0H365.77V14.78H330.29V22.17H342.12V36.95H330.29V59.13H318.46V0ZM370.41 0H417.72V14.78H382.24V22.17H394.07V36.95H382.24V44.34H417.72V59.12H370.41V0ZM422.36 1.85L425.32 0H469.67V14.78H434.19V22.17H466.71L469.67 24.02V57.28L466.71 59.13H422.36V44.35H457.84V36.96H425.32L422.36 35.11V1.85ZM474.3 0H521.61V14.78H503.87V59.13H492.04V14.78H474.3V0ZM526.25 0H538.08V59.14H526.25V0ZM542.71 0H555.34L566.36 36.96L577.38 0H590.01L572.27 59.14H560.44L542.7 0H542.71ZM630.14 36.96H606.49V59.14H594.66V1.85L597.62 0H639.01L641.97 1.85V59.14H630.14V36.96ZM606.49 22.18H630.14V14.79H606.49V22.18ZM646.59 0H658.42V44.35H693.9V59.13H646.59V0ZM215.87 314.05H213.41V295.57L215.87 298.03V302.96H220.8V296.8H215.87V294.34H223.26V305.43H215.87V314.05ZM233.79 314.05H231.33V294.34H241.19V305.43H235.03V302.97H238.73V296.81H233.8V305.43L241.19 314.05H237.97L233.8 309.12V314.05H233.79ZM249.25 294.34H257.54V311.98H255.47V314.05H253.4V311.98H249.26V294.34H249.25ZM251.32 309.91H255.46V296.41H251.32V309.91ZM265.6 311.59H268.06V314.05H265.6V311.59ZM285.4 294.34H295.26V296.8H287.87V302.96H295.26V314.05H285.4V311.59H292.79V305.43H285.4V294.34ZM303.32 294.34H305.78V314.05H303.32V294.34ZM316.28 294.34H322.44L323.67 314.05H321.21L320.12 296.8H318.89L319.98 314.05H317.52L317.1 306.66L316.29 314.05H313.83L316.29 294.34H316.28ZM331.74 294.34H341.6V314.05H331.74V294.34ZM334.2 311.59H339.13V296.81H334.2V311.59ZM336.66 290.65H339.12L337.89 293.11H335.43L336.66 290.65ZM352.12 301.23V314.05H349.66V294.34H352.12L357.05 307.19V294.34H359.51V314.05H357.05L352.12 301.23ZM376.87 294.34H386.73V314.05H376.87V311.59H378.1V296.81H376.87V294.35V294.34ZM380.57 302.96H384.27V296.8H380.57V302.96ZM380.57 311.58H384.27V305.42H380.57V311.58ZM394.79 294.33H404.65V314.04H394.79V294.33ZM397.25 311.58H402.18V296.8H397.25V311.58ZM412.71 311.58H413.94V294.33H416.4V311.58H422.56V314.04H412.7V311.58H412.71ZM431.86 290.64H434.32L433.09 293.1H430.63L431.86 290.64ZM430.63 294.34H433.09V314.05H430.63V294.34ZM441.16 294.34H443.65L446.09 307.33L448.53 294.34H451.02L447.32 314.05H444.86L441.16 294.34ZM459.08 294.34H468.94V314.05H466.48V305.43H461.55V314.05H459.09V294.34H459.08ZM461.54 302.96H466.47V296.8H461.54V302.96ZM479.46 314.05H477V294.34H486.86V305.43H480.7V302.97H484.4V296.81H479.47V305.43L486.86 314.05H483.64L479.47 309.12V314.05H479.46ZM506.84 314.05H504.21L511.43 294.34H514.06L506.84 314.05ZM531.42 294.34H541.28V314.05H531.42V311.59H532.65V296.81H531.42V294.35V294.34ZM535.12 302.96H538.82V296.8H535.12V302.96ZM535.12 311.58H538.82V305.42H535.12V311.58ZM549.34 294.33H559.2V314.04H549.34V294.33ZM551.8 311.58H556.73V296.8H551.8V311.58ZM567.26 294.33H577.12V296.79H569.73V311.57H574.66V305.41H573.43V306.64H570.97V302.94H577.13V314.03H567.27V294.32L567.26 294.33ZM585.18 294.33H595.04V314.04H585.18V294.33ZM587.64 311.58H592.57V296.8H587.64V311.58ZM603.1 294.33H612.96V296.79H609.26V314.04H606.8V296.79H603.1V294.33ZM628.41 305.42H623.48V314.04H621.02V294.33H630.88V314.04H628.42V305.42H628.41ZM623.48 302.96H628.41V296.8H623.48V302.96ZM625.94 290.64H628.4L627.17 293.1H624.71L625.94 290.64ZM648.23 302.96H653.16V305.42H648.23V302.96ZM670.52 294.34H680.38V296.8H672.99V311.58H680.38V314.04H670.52V294.33V294.34ZM688.44 294.34H698.3V314.05H688.44V294.34ZM690.9 311.59H695.83V296.81H690.9V311.59ZM706.36 311.59H707.59V294.34H710.05V311.59H716.21V314.05H706.35V311.59H706.36ZM724.28 294.34H734.14V314.05H724.28V294.34ZM726.74 311.59H731.67V296.81H726.74V311.59ZM744.66 294.34H750.82L752.05 314.05H749.59L748.5 296.8H747.27L748.36 314.05H745.9L745.48 306.66L744.67 314.05H742.21L744.67 294.34H744.66ZM760.12 294.34H769.98V314.05H760.12V311.59H761.35V296.81H760.12V294.35V294.34ZM763.82 302.96H767.52V296.8H763.82V302.96ZM763.82 311.58H767.52V305.42H763.82V311.58ZM778.04 294.33H780.5V314.04H778.04V294.33ZM788.57 294.33H798.43V314.04H795.97V305.42H791.04V314.04H788.58V294.33H788.57ZM791.03 302.95H795.96V296.79H791.03V302.95ZM0 69.22H93.41V108.14H31.14V224.9H93.41V263.82H0V69.22ZM108.97 69.22H202.38V263.82H108.97V69.22ZM140.11 224.9H171.25V108.14H140.11V224.9ZM249.08 195.71V263.82H217.94V69.22H311.35V185.98H280.21L311.35 263.82H276.21L249.08 195.71ZM249.08 147.06H280.22V108.14H249.08V147.06ZM326.92 69.22H404.76L420.33 88.68V244.36L404.76 263.82H326.92V69.22ZM358.06 224.9H389.2V108.14H358.06V224.9ZM435.9 69.22H467.04V263.82H435.9V69.22ZM482.6 69.22H513.74V224.9H576.01V263.82H482.6V69.22ZM591.57 69.22H622.71V224.9H684.98V263.82H591.57V69.22ZM700.54 69.22H793.95V108.14H731.68V147.06H762.81V185.98H731.68V224.9H793.95V263.82H700.54V69.22ZM840.65 195.71V263.82H809.51V69.22H902.92V185.98H871.78L902.92 263.82H867.78L840.65 195.71ZM840.65 147.06H871.78V108.14H840.65V147.06ZM980.76 185.98H949.63V263.82H918.49V69.22H1011.9V263.82H980.76V185.98ZM949.63 147.06H980.76V108.14H949.63V147.06Z" fill="#FFEFE3"/>
</svg>
